<svg width="22" height="22" viewBox="0 0 22 22" fill="none" xmlns="http://www.w3.org/2000/svg">
<path d="M16.7375 3.29178C18.2286 3.16089 19.6367 4.24421 19.7814 5.75662C19.8705 6.68862 19.6429 7.30949 19.0519 8.02811C20.7821 8.34687 21.6749 10.1938 21.0773 11.7957C20.827 12.4739 20.3132 13.0219 19.6525 13.3152C18.3831 13.8864 16.1947 13.1619 14.9416 12.6844C14.9183 12.7088 14.8785 12.748 14.8585 12.7732C15.9632 13.4211 18.0864 14.9041 18.4025 16.1736C18.5801 16.8873 18.5043 17.6859 18.1251 18.3318C17.7483 18.9825 17.1269 19.4564 16.3996 19.6472C15.8463 19.7895 15.1578 19.7645 14.632 19.5349C14.3937 19.4309 14.0138 19.2309 13.8283 19.0457C13.689 19.7743 13.2662 20.4181 12.6525 20.8347C11.3538 21.7247 9.61041 21.369 8.71695 20.0808C8.08864 19.1748 8.26247 18.1277 8.45523 17.116C8.57325 16.5021 8.77283 15.8892 8.97378 15.2879C10.6202 13.3543 12.0515 11.1413 13.0793 6.44315C13.0994 6.41396 13.1188 6.38356 13.1408 6.35428C13.4155 5.9878 13.709 5.55076 14.0011 5.20682C14.7367 4.34993 15.5311 3.3977 16.7375 3.29178Z" fill="#BB8E73"/>
<path d="M10.3566 0.164826C11.0771 -0.0908184 11.8699 -0.0475595 12.5587 0.283967C13.2173 0.60583 13.7195 1.17806 13.9533 1.87283C14.3962 3.17161 13.579 5.07274 12.924 6.43338C9.56835 9.60869 7.92785 11.9505 6.89077 15.2449C6.61222 15.5296 6.32463 15.8056 6.02456 16.0681C5.29119 16.7089 4.5196 17.1841 3.52066 17.0994C2.78539 17.0369 2.102 16.6881 1.62222 16.1316C1.13323 15.5642 0.888115 14.8261 0.940579 14.0789C0.994399 13.3639 1.35726 12.6429 1.90152 12.1765C0.404718 11.595 -0.388574 10.0108 0.189602 8.48709C0.453975 7.78924 0.985506 7.22471 1.66616 6.91873C2.97963 6.33071 4.64591 7.08953 5.86636 7.64139C6.27763 7.82742 6.61569 8.05294 7.06167 8.22244C7.00656 8.17072 6.93871 8.11748 6.87906 8.0701C5.91693 7.30627 4.98564 6.48154 4.25991 5.48319C3.84302 4.9175 3.71011 4.39118 3.74331 3.69315C3.8193 2.09852 5.14979 0.998389 6.70718 1.07694C7.43258 1.10656 8.11551 1.42635 8.60269 1.96463C8.91259 1.1217 9.49926 0.462805 10.3566 0.164826Z" fill="#1D4335"/>
</svg>
